<?xml version="1.0" standalone="no"?>
<!DOCTYPE svg PUBLIC "-//W3C//DTD SVG 20010904//EN"
 "http://www.w3.org/TR/2001/REC-SVG-20010904/DTD/svg10.dtd">
<svg version="1.0" xmlns="http://www.w3.org/2000/svg"
 width="100.000000pt" height="91.000000pt" viewBox="0 0 100.000000 91.000000"
 preserveAspectRatio="xMidYMid meet">

<g transform="translate(0.000000,91.000000) scale(0.100000,-0.100000)"
fill="#000000" stroke="none">
<path d="M160 880 c-56 -26 -105 -72 -133 -125 -16 -31 -22 -58 -22 -116 0
-67 4 -83 37 -150 64 -129 194 -275 381 -427 l78 -64 67 55 c253 204 414 414
429 559 16 161 -123 302 -283 285 -68 -7 -148 -50 -182 -99 -15 -21 -29 -37
-32 -37 -3 0 -17 17 -32 39 -41 60 -106 92 -192 97 -57 3 -80 0 -116 -17z
m224 -28 c27 -15 60 -44 74 -64 29 -45 53 -48 77 -10 41 64 114 102 200 102
202 0 305 -195 206 -389 -62 -122 -203 -280 -369 -415 l-72 -58 -68 55 c-187
154 -305 286 -372 421 -34 67 -40 88 -40 142 0 195 192 309 364 216z"/>
</g>
</svg>
